{"title":"[ShepardTDS] Haganai Season 1 Dual Audio [720p 8bit] 1-12+BOTH O","uid":12526501,"size":3564928144,"categoryP":"video","categoryS":"tv_shows","magnet":"?xt=urn:btih:3c2e7edc9a0086b62075b17382fdef5af56e20f5&amp;dn=%5BShepardTDS%5D+Haganai+Season+1+Dual+Audio+%5B720p+8bit%5D+1-12%2BBOTH+O&amp;tr=udp%3A%2F%2Ftracker.leechers-paradise.org%3A6969&amp;tr=udp%3A%2F%2Fzer0day.ch%3A1337&amp;tr=udp%3A%2F%2Fopen.demonii.com%3A1337&amp;tr=udp%3A%2F%2Ftracker.coppersurfer.tk%3A6969&amp;tr=udp%3A%2F%2Fexodus.desync.com%3A6969","seeders":0,"leechers":2,"uploader":"ShepardTDS","files":14,"time":1444070938,"description":"The first ova is NOT in dual audio nor 720. Its subbed and ill include the specs after the main ones below.\r\n\r\n\r\nGeneral\r\n\r\nFormat : Matroska\r\nFile size : 242 MiB\r\nDuration : 24mn 11s\r\nOverall bit rate : 1 396 Kbps\r\nEncoded date : UTC 2015-10-04 23:33:58\r\nWriting application : mkvmerge v7.7.0 ('Six Voices') 32bit built on Feb 28 2015 23:23:00\r\nWriting library : libebml v1.3.1 + libmatroska v1.4.2\r\n\r\nVideo\r\nID : 1\r\nFormat : AVC\r\nFormat/Info : Advanced Video Codec\r\nFormat profile :   \r\nFormat settings, CABAC : Yes\r\nFormat settings, ReFrames : 16 frames\r\nFormat settings, GOP : M=11, N=24\r\nCodec ID : V_MPEG4/ISO/AVC\r\nDuration : 24mn 11s\r\nBit rate : 750 Kbps\r\nWidth : 1 280 pixels\r\nHeight : 720 pixels\r\nDisplay aspect ratio : 16:9\r\nFrame rate : 23.976 fps\r\nColor space : YUV\r\nChroma subsampling : 4:2:0\r\nBit depth : 8 bits\r\nScan type : Progressive\r\nBits/(Pixel*Frame) : 0.034\r\nStream size : 126 MiB (52%)\r\nWriting library : x264 core 146 r2538 121396c\r\n\r\n\r\nAudio #1\r\nID : 2\r\nFormat : AC-3\r\nFormat/Info : Audio Coding 3\r\nMode extension : CM (complete main)\r\nCodec ID : A_AC3\r\nDuration : 24mn 11s\r\nBit rate mode : Constant\r\nBit rate : 448 Kbps\r\nChannel(s) : 6 channels\r\nChannel positions : Front: L C R, Side: L R, LFE\r\nSampling rate : 48.0 KHz\r\nBit depth : 16 bits\r\nCompression mode : Lossy\r\nStream size : 77.5 MiB (32%)\r\nLanguage : English\r\n\r\nAudio #2\r\nID : 3\r\nFormat : AC-3\r\nFormat/Info : Audio Coding 3\r\nMode extension : CM (complete main)\r\nCodec ID : A_AC3\r\nDuration : 24mn 11s\r\nBit rate mode : Constant\r\nBit rate : 192 Kbps\r\nChannel(s) : 2 channels\r\nChannel positions : Front: L R\r\nSampling rate : 48.0 KHz\r\nBit depth : 16 bits\r\nCompression mode : Lossy\r\nStream size : 33.2 MiB (14%)\r\nLanguage : Japanese\r\n\r\nText #1\r\nID : 4\r\nFormat : UTF-8\r\nCodec ID : S_TEXT/UTF8\r\nCodec ID/Info : UTF-8 Plain Text\r\nLanguage : English\r\n\r\nText #2\r\nID : 5\r\nFormat : VobSub\r\nMuxing mode : zlib\r\nCodec ID : S_VOBSUB\r\nCodec ID/Info : The same subtitle format used on DVDs\r\nLanguage : English\r\n\r\nText #3\r\nID : 6\r\nFormat : UTF-8\r\nCodec ID : S_TEXT/UTF8\r\nCodec ID/Info : UTF-8 Plain Text\r\nLanguage : Japanese\r\n\r\nText #4\r\nID : 7\r\nFormat : VobSub\r\nMuxing mode : zlib\r\nCodec ID : S_VOBSUB\r\nCodec ID/Info : The same subtitle format used on DVDs\r\nLanguage : Japanese\r\n\r\n\r\nFormat : Matroska\r\nFile size : 255 MiB\r\nDuration : 11mn 13s\r\nOverall bit rate : 3 177 Kbps\r\nEncoded date : UTC 2015-01-11 01:19:27\r\nWriting application : mkvmerge v7.3.0 ('Nouages') 64bit\r\nWriting library : libebml v1.3.0 + libmatroska v1.4.1\r\n\r\n\r\nVideo\r\nID : 1\r\nFormat : AVC\r\nFormat/Info : Advanced Video Codec\r\nFormat profile : High   \r\nFormat settings, CABAC : Yes\r\nFormat settings, ReFrames : 12 frames\r\nCodec ID : V_MPEG4/ISO/AVC\r\nDuration : 11mn 13s\r\nNominal bit rate : 2 423 Kbps\r\nWidth : 1 024 pixels\r\nHeight : 576 pixels\r\nDisplay aspect ratio : 16:9\r\nFrame rate : 23.976 fps\r\nColor space : YUV\r\nChroma subsampling : 4:2:0\r\nBit depth : 10 bits\r\nScan type : Progressive\r\nBits/(Pixel*Frame) : 0.171\r\nWriting library : x264 core 118 r2085 8a62835\r\n\r\n\r\nAudio\r\nID : 2\r\nFormat : FLAC\r\nFormat/Info : Free Lossless Audio Codec\r\nCodec ID : A_FLAC\r\nDuration : 11mn 13s\r\nBit rate mode : Variable\r\nChannel(s) : 2 channels\r\nSampling rate : 48.0 KHz\r\nBit depth : 16 bits\r\nTitle : FLAC\r\nWriting library : libFLAC 1.2.1 (UTC 2007-09-17)\r\nLanguage : Japanese\r\n\r\nText\r\nID : 3\r\nFormat : ASS\r\nCodec ID : S_TEXT/ASS\r\nCodec ID/Info : Advanced Sub Station Alpha\r\nCompression mode : Lossless\r\nTitle : EveTaku\r\nLanguage : English","torrent":{"xt":"urn:btih:3c2e7edc9a0086b62075b17382fdef5af56e20f5","amp;dn":"%5BShepardTDS%5D+Haganai+Season+1+Dual+Audio+%5B720p+8bit%5D+1-12%2BBOTH+O","amp;tr":["udp%3A%2F%2Ftracker.leechers-paradise.org%3A6969","udp%3A%2F%2Fzer0day.ch%3A1337","udp%3A%2F%2Fopen.demonii.com%3A1337","udp%3A%2F%2Ftracker.coppersurfer.tk%3A6969","udp%3A%2F%2Fexodus.desync.com%3A6969"],"infoHash":"3c2e7edc9a0086b62075b17382fdef5af56e20f5","infoHashBuffer":{"type":"Buffer","data":[60,46,126,220,154,0,134,182,32,117,177,115,130,253,239,90,245,110,32,245]},"announce":[],"urlList":[]}}